HIERARCHY
ROOT Hips
{
	OFFSET 0.000000 100.481300 0.000000
	CHANNELS 6 Xposition Yposition Zposition Xrotation Yrotation Zrotation
	JOINT Spine
	{
		OFFSET -0.279200 12.230698 -2.892100
		CHANNELS 3 Xrotation Yrotation Zrotation
		JOINT Spine1
		{
			OFFSET -0.325700 14.269203 -3.374200
			CHANNELS 3 Xrotation Yrotation Zrotation
			JOINT Spine2
			{
				OFFSET -0.372300 16.307602 -0.352600
				CHANNELS 3 Xrotation Yrotation Zrotation
				JOINT Neck
				{
					OFFSET -0.418800 17.814194 8.416900
					CHANNELS 3 Xrotation Yrotation Zrotation
					JOINT Head
					{
						OFFSET 0.000000 7.031097 3.806800
						CHANNELS 3 Xrotation Yrotation Zrotation
						JOINT HeadTop_End
						{
							OFFSET 0.000000 24.646606 12.978600
							CHANNELS 3 Xrotation Yrotation Zrotation
							End Site
							{
								OFFSET 0.000000 27.854965 0.000000
							}
						}
					}
				}
				JOINT LeftShoulder
				{
					OFFSET 16.952999 14.495407 -7.737500
					CHANNELS 3 Xrotation Yrotation Zrotation
					JOINT LeftArm
					{
						OFFSET 9.308998 -2.777710 0.208600
						CHANNELS 3 Xrotation Yrotation Zrotation
						JOINT LeftForeArm
						{
							OFFSET 29.972298 0.000000 0.000000
							CHANNELS 3 Xrotation Yrotation Zrotation
							JOINT LeftHand
							{
								OFFSET 26.026505 0.000000 0.000000
								CHANNELS 3 Xrotation Yrotation Zrotation
								JOINT LeftHandThumb1
								{
									OFFSET 12.240501 -7.147949 9.207150
									CHANNELS 3 Xrotation Yrotation Zrotation
									JOINT LeftHandThumb2
									{
										OFFSET 4.138618 -2.389435 2.389433
										CHANNELS 3 Xrotation Yrotation Zrotation
										JOINT LeftHandThumb3
										{
											OFFSET 2.726913 -1.574387 1.574386
											CHANNELS 3 Xrotation Yrotation Zrotation
											JOINT LeftHandThumb4
											{
												OFFSET 3.941010 -2.275345 2.275342
												CHANNELS 3 Xrotation Yrotation Zrotation
												End Site
												{
													OFFSET -0.005798 5.087799 0.009903
												}
											}
										}
									}
								}
								JOINT LeftHandIndex1
								{
									OFFSET 24.424698 -1.985611 5.953459
									CHANNELS 3 Xrotation Yrotation Zrotation
									JOINT LeftHandIndex2
									{
										OFFSET 6.426697 0.000000 0.000000
										CHANNELS 3 Xrotation Yrotation Zrotation
										JOINT LeftHandIndex3
										{
											OFFSET 5.337898 0.000000 0.000000
											CHANNELS 3 Xrotation Yrotation Zrotation
											JOINT LeftHandIndex4
											{
												OFFSET 4.409401 0.000000 0.000000
												CHANNELS 3 Xrotation Yrotation Zrotation
												End Site
												{
													OFFSET 0.000000 4.409363 0.014373
												}
											}
										}
									}
								}
								JOINT LeftHandMiddle1
								{
									OFFSET 23.810104 0.000000 0.000000
									CHANNELS 3 Xrotation Yrotation Zrotation
									JOINT LeftHandMiddle2
									{
										OFFSET 7.176498 0.000000 0.000000
										CHANNELS 3 Xrotation Yrotation Zrotation
										JOINT LeftHandMiddle3
										{
											OFFSET 6.774902 0.000000 0.000000
											CHANNELS 3 Xrotation Yrotation Zrotation
											JOINT LeftHandMiddle4
											{
												OFFSET 5.403328 0.000000 0.000000
												CHANNELS 3 Xrotation Yrotation Zrotation
												End Site
												{
													OFFSET -0.027702 5.403244 0.017414
												}
											}
										}
									}
								}
								JOINT LeftHandRing1
								{
									OFFSET 22.908401 -0.839279 -6.020567
									CHANNELS 3 Xrotation Yrotation Zrotation
									JOINT LeftHandRing2
									{
										OFFSET 6.337502 0.000000 0.000000
										CHANNELS 3 Xrotation Yrotation Zrotation
										JOINT LeftHandRing3
										{
											OFFSET 5.779297 0.000000 0.000000
											CHANNELS 3 Xrotation Yrotation Zrotation
											JOINT LeftHandRing4
											{
												OFFSET 4.965698 0.000000 0.000000
												CHANNELS 3 Xrotation Yrotation Zrotation
												End Site
												{
													OFFSET 0.000000 4.965668 0.016186
												}
											}
										}
									}
								}
								JOINT LeftHandPinky1
								{
									OFFSET 20.037003 -1.530319 -10.950146
									CHANNELS 3 Xrotation Yrotation Zrotation
									JOINT LeftHandPinky2
									{
										OFFSET 5.254700 0.000000 0.000000
										CHANNELS 3 Xrotation Yrotation Zrotation
										JOINT LeftHandPinky3
										{
											OFFSET 4.810204 0.000000 0.000000
											CHANNELS 3 Xrotation Yrotation Zrotation
											JOINT LeftHandPinky4
											{
												OFFSET 3.647202 0.000000 0.000000
												CHANNELS 3 Xrotation Yrotation Zrotation
												End Site
												{
													OFFSET 0.000000 3.647186 0.011889
												}
											}
										}
									}
								}
							}
						}
					}
				}
				JOINT RightShoulder
				{
					OFFSET -15.141001 14.495407 -7.737500
					CHANNELS 3 Xrotation Yrotation Zrotation
					JOINT RightArm
					{
						OFFSET -9.308998 -2.777710 0.208500
						CHANNELS 3 Xrotation Yrotation Zrotation
						JOINT RightForeArm
						{
							OFFSET -29.972300 0.000000 0.000000
							CHANNELS 3 Xrotation Yrotation Zrotation
							JOINT RightHand
							{
								OFFSET -26.026505 0.000000 0.000000
								CHANNELS 3 Xrotation Yrotation Zrotation
								JOINT RightHandThumb1
								{
									OFFSET -12.240601 -7.148026 9.207092
									CHANNELS 3 Xrotation Yrotation Zrotation
									JOINT RightHandThumb2
									{
										OFFSET -4.138618 -2.389435 2.389433
										CHANNELS 3 Xrotation Yrotation Zrotation
										JOINT RightHandThumb3
										{
											OFFSET -2.726974 -1.574417 1.574421
											CHANNELS 3 Xrotation Yrotation Zrotation
											JOINT RightHandThumb4
											{
												OFFSET -3.941010 -2.275345 2.275343
												CHANNELS 3 Xrotation Yrotation Zrotation
												End Site
												{
													OFFSET 0.005814 5.087799 0.009927
												}
											}
										}
									}
								}
								JOINT RightHandIndex1
								{
									OFFSET -24.424698 -1.985657 5.953444
									CHANNELS 3 Xrotation Yrotation Zrotation
									JOINT RightHandIndex2
									{
										OFFSET -6.426697 0.000000 0.000000
										CHANNELS 3 Xrotation Yrotation Zrotation
										JOINT RightHandIndex3
										{
											OFFSET -5.337898 0.000000 0.000000
											CHANNELS 3 Xrotation Yrotation Zrotation
											JOINT RightHandIndex4
											{
												OFFSET -4.409401 0.000000 0.000000
												CHANNELS 3 Xrotation Yrotation Zrotation
												End Site
												{
													OFFSET 0.000000 4.409363 0.014408
												}
											}
										}
									}
								}
								JOINT RightHandMiddle1
								{
									OFFSET -23.810097 0.000000 0.000000
									CHANNELS 3 Xrotation Yrotation Zrotation
									JOINT RightHandMiddle2
									{
										OFFSET -7.176498 0.000000 0.000000
										CHANNELS 3 Xrotation Yrotation Zrotation
										JOINT RightHandMiddle3
										{
											OFFSET -6.774902 0.000000 0.000000
											CHANNELS 3 Xrotation Yrotation Zrotation
											JOINT RightHandMiddle4
											{
												OFFSET -5.403328 0.000000 0.000000
												CHANNELS 3 Xrotation Yrotation Zrotation
												End Site
												{
													OFFSET 0.027702 5.403244 0.017457
												}
											}
										}
									}
								}
								JOINT RightHandRing1
								{
									OFFSET -22.908302 -0.839325 -6.020576
									CHANNELS 3 Xrotation Yrotation Zrotation
									JOINT RightHandRing2
									{
										OFFSET -6.337502 0.000000 0.000000
										CHANNELS 3 Xrotation Yrotation Zrotation
										JOINT RightHandRing3
										{
											OFFSET -5.779297 0.000000 0.000000
											CHANNELS 3 Xrotation Yrotation Zrotation
											JOINT RightHandRing4
											{
												OFFSET -4.965698 0.000000 0.000000
												CHANNELS 3 Xrotation Yrotation Zrotation
												End Site
												{
													OFFSET 0.000000 4.965668 0.016226
												}
											}
										}
									}
								}
								JOINT RightHandPinky1
								{
									OFFSET -20.037003 -1.530334 -10.950259
									CHANNELS 3 Xrotation Yrotation Zrotation
									JOINT RightHandPinky2
									{
										OFFSET -5.254700 0.000000 0.000000
										CHANNELS 3 Xrotation Yrotation Zrotation
										JOINT RightHandPinky3
										{
											OFFSET -4.810204 0.000000 0.000000
											CHANNELS 3 Xrotation Yrotation Zrotation
											JOINT RightHandPinky4
											{
												OFFSET -3.647202 0.000000 0.000000
												CHANNELS 3 Xrotation Yrotation Zrotation
												End Site
												{
													OFFSET 0.000000 3.647186 0.011917
												}
											}
										}
									}
								}
							}
						}
					}
				}
			}
		}
	}
	JOINT LeftUpLeg
	{
		OFFSET 15.427100 -6.655098 0.678600
		CHANNELS 3 Xrotation Yrotation Zrotation
		JOINT LeftLeg
		{
			OFFSET 4.081073 -39.591068 13.024000
			CHANNELS 3 Xrotation Yrotation Zrotation
			JOINT LeftFoot
			{
				OFFSET -4.081074 -37.707932 -15.979700
				CHANNELS 3 Xrotation Yrotation Zrotation
				JOINT LeftToeBase
				{
					OFFSET 5.346399 -15.068900 20.645000
					CHANNELS 3 Xrotation Yrotation Zrotation
					JOINT LeftToe_End
					{
						OFFSET 2.754700 0.931300 11.300900
						CHANNELS 3 Xrotation Yrotation Zrotation
						End Site
						{
							OFFSET 0.000000 11.669021 0.000000
						}
					}
				}
			}
		}
	}
	JOINT RightUpLeg
	{
		OFFSET -15.569500 -6.655098 0.678600
		CHANNELS 3 Xrotation Yrotation Zrotation
		JOINT RightLeg
		{
			OFFSET -4.081825 -39.591045 13.023800
			CHANNELS 3 Xrotation Yrotation Zrotation
			JOINT RightFoot
			{
				OFFSET 4.081824 -37.707954 -15.979600
				CHANNELS 3 Xrotation Yrotation Zrotation
				JOINT RightToeBase
				{
					OFFSET -5.346400 -15.068900 20.645000
					CHANNELS 3 Xrotation Yrotation Zrotation
					JOINT RightToe_End
					{
						OFFSET -2.754700 0.931300 11.300900
						CHANNELS 3 Xrotation Yrotation Zrotation
						End Site
						{
							OFFSET 0.000000 11.669021 0.000000
						}
					}
				}
			}
		}
	}
}
MOTION
Frames: 6
Frame Time: 0.033333
-48.343220 73.760773 14.398594 83.908731 72.279814 -72.029775 6.007075 3.887248 3.943674 12.298851 6.433746 2.182996 12.298849 6.433726 2.183015 5.357544 3.576377 10.561691 21.378856 -23.383238 7.487823 0.000002 -0.000000 0.000001 0.295597 -1.987893 -0.948234 8.516301 -8.900424 -76.541285 0.660031 -22.291197 0.250338 46.118424 -10.236078 -12.426526 -16.653323 -14.520441 5.351777 10.276561 27.703010 -13.158399 0.000000 -0.000010 -0.000010 0.000001 -0.000002 0.000000 -8.239396 6.206761 4.399295 0.502102 0.721594 -11.696555 -0.000002 0.000000 -0.000008 0.000000 0.000001 -0.000002 -1.263787 3.903041 -8.576072 0.000942 0.219270 -0.723452 0.000000 -0.000002 -0.000010 -0.000000 0.000001 -0.000001 1.361399 5.580034 -21.960989 -0.601165 -1.138356 -24.929692 -0.000001 -0.000001 -0.000007 0.000002 -0.000001 -0.000001 6.171161 4.076037 -24.362875 -0.023504 0.114873 -0.283926 0.000003 0.000002 -0.000006 -0.000000 0.000001 0.000000 2.489838 7.810701 -12.618002 -33.807333 -13.901061 77.320562 -30.925092 77.004516 31.795220 20.525787 -0.258567 6.288637 20.995406 -9.203945 2.738770 2.246385 -1.580579 -3.531012 0.000001 -0.000006 -0.000007 0.000000 -0.000002 0.000004 1.681564 0.272982 15.300097 -0.136128 -0.425259 25.558068 -0.000002 -0.000001 -0.000002 -0.000002 0.000000 -0.000000 5.072117 -5.281368 42.464652 -3.678731 3.767552 77.934364 0.000001 -0.000001 0.000004 0.000003 0.000000 0.000002 -2.048033 -5.358186 37.885403 -1.713837 1.984126 63.146062 0.000001 -0.000000 -0.000001 -0.000002 0.000000 -0.000001 -9.456563 -3.145154 36.252213 0.956475 2.069938 53.828349 -0.000001 0.000000 0.000001 -0.000003 -0.000000 0.000000 -41.079609 8.400117 -9.755052 70.331926 -5.590061 -1.925439 35.825230 59.573825 -14.382427 -26.988488 2.986837 -21.966614 -0.000000 0.000001 0.000001 -73.988598 -3.311055 -26.822054 62.911213 -0.117101 1.031789 -9.195135 -20.362541 1.081036 -5.042560 0.032224 -0.022958 -0.000000 0.000001 0.000000 
-50.488216 76.785095 14.745107 113.931893 75.277625 -103.715241 4.962465 3.122142 4.055592 10.104648 6.066955 3.128203 10.104638 6.066957 3.128211 8.371596 3.171781 12.712005 19.609340 -26.283246 5.783183 0.000002 0.000001 -0.000000 0.267557 -1.849902 -0.147578 9.415578 -8.835887 -78.090338 0.777365 -21.060610 0.279281 45.015120 -10.708932 -17.258008 -15.563190 -14.319565 7.215568 9.994718 27.372207 -12.931598 0.000003 -0.000002 -0.000010 -0.000002 -0.000000 -0.000001 -8.272459 5.606187 2.991796 0.504453 0.732158 -11.697805 0.000002 0.000002 -0.000009 0.000002 0.000002 0.000001 -1.385491 3.550090 -9.675498 0.002057 0.210174 -0.894805 -0.000000 -0.000001 -0.000010 0.000000 0.000001 -0.000002 1.591184 6.165044 -21.755182 -0.645730 -1.222093 -25.927190 0.000001 0.000002 -0.000009 -0.000001 -0.000001 -0.000001 6.046206 3.789362 -23.278354 -0.029726 0.039675 -0.692450 0.000000 0.000003 -0.000009 0.000002 0.000002 0.000001 2.563762 6.541064 -11.820856 -37.207432 -18.855017 77.695922 -25.307270 75.441844 26.079938 25.844416 2.895366 6.766974 20.676063 -9.571605 2.753136 2.313860 -1.467008 -3.511660 0.000005 -0.000007 -0.000008 -0.000001 -0.000001 -0.000001 1.788003 0.298941 15.245032 -0.145532 -0.404278 25.741595 -0.000001 0.000001 -0.000001 0.000001 0.000001 -0.000003 5.111597 -5.312938 42.288512 -3.701644 3.772366 78.180975 0.000002 -0.000001 -0.000000 0.000002 0.000001 -0.000001 -2.066681 -5.322818 37.668056 -1.730374 1.992415 63.600126 0.000002 -0.000001 0.000000 0.000003 0.000000 -0.000001 -9.482315 -3.076085 36.088011 1.033578 2.040700 54.246940 -0.000001 -0.000001 -0.000000 0.000001 0.000000 -0.000002 -27.506024 6.259075 -8.730184 63.828828 -3.352351 -0.502621 37.740497 59.841412 -27.558731 -23.729862 1.658235 -18.344162 0.000002 -0.000002 -0.000001 -66.426076 -7.265784 -30.299477 58.280092 -0.004665 1.116579 -8.318522 -25.300083 2.375327 -5.042472 0.032405 -0.022949 -0.000000 0.000000 0.000000 
-52.275192 79.947845 14.905087 142.258196 72.300858 -132.699606 3.963315 2.545667 3.525692 8.015595 5.500422 3.337003 8.015598 5.500428 3.337011 9.587811 2.386824 14.786166 16.422466 -29.868800 4.230419 0.000000 0.000000 0.000000 0.397242 -0.770357 0.048567 9.524582 -8.884668 -77.884067 0.934620 -20.375265 0.325241 40.766582 -11.149366 -20.668899 -15.664303 -15.146320 7.804482 10.838448 28.712100 -13.447643 0.000000 -0.000004 -0.000008 0.000001 -0.000001 0.000000 -8.423013 5.827755 -2.265462 0.506994 0.745492 -11.734170 -0.000000 -0.000002 -0.000009 -0.000001 -0.000001 0.000000 -1.971782 2.333110 -14.253323 0.002996 0.199013 -1.105597 -0.000001 0.000001 -0.000012 0.000001 0.000000 0.000000 1.206535 5.190075 -23.818546 -0.642766 -1.217320 -25.862887 -0.000002 -0.000000 -0.000005 -0.000001 -0.000002 -0.000003 5.563908 2.684646 -26.204852 -0.024500 0.080338 -0.471258 -0.000002 -0.000007 -0.000005 -0.000001 -0.000000 0.000001 2.387589 4.633894 -11.406156 -42.004608 -23.544318 75.796966 -20.132000 73.225304 20.793842 26.862200 3.398014 5.222472 20.355502 -9.938438 2.764179 2.381254 -1.353324 -3.492599 0.000001 -0.000004 -0.000009 0.000005 0.000001 -0.000003 1.894500 0.324704 15.189893 -0.155030 -0.383351 25.925148 -0.000001 -0.000000 -0.000005 0.000000 -0.000000 -0.000002 5.150922 -5.344708 42.112395 -3.724591 3.777127 78.427572 0.000000 0.000000 0.000001 -0.000002 -0.000000 0.000004 -2.085073 -5.287237 37.450733 -1.746999 2.000565 64.054224 0.000001 -0.000000 -0.000000 0.000001 -0.000000 -0.000000 -9.507704 -3.006816 35.923858 1.111261 2.012477 54.665545 -0.000001 0.000001 -0.000000 0.000000 0.000000 -0.000000 -16.068570 3.748838 -8.421236 55.847615 -0.902983 0.845825 24.993076 61.305299 -32.176253 -17.557435 -0.103867 -11.659822 -0.000000 -0.000000 -0.000000 -60.448465 -10.963673 -33.778147 53.045879 0.325648 1.313529 -6.486344 -30.266395 4.077097 -5.042461 0.032436 -0.022942 -0.000000 0.000001 -0.000000 
-54.382607 82.159042 14.653915 155.926580 66.693136 -146.831063 3.263866 2.143547 2.819370 6.568481 4.853869 2.994185 6.568475 4.853858 2.994188 8.362398 1.094503 16.132690 12.961675 -33.186168 3.204387 -0.000003 -0.000000 0.000001 0.948839 1.082126 -0.108803 8.909586 -8.753751 -76.442207 1.006599 -21.027999 0.360998 35.249814 -10.241329 -20.215002 -17.960186 -17.098197 5.534823 12.901091 31.424720 -14.657907 0.000001 -0.000007 -0.000008 0.000000 -0.000001 0.000000 -8.467170 6.874254 -10.106096 0.513682 0.778948 -12.057278 0.000001 -0.000002 -0.000011 0.000001 -0.000003 0.000000 -3.159266 0.609820 -20.750379 0.001310 0.203075 -1.030538 0.000000 -0.000001 -0.000011 -0.000001 0.000001 0.000002 -0.186788 2.415790 -27.049815 -0.551055 -1.042468 -23.773279 -0.000005 -0.000000 -0.000007 -0.000001 0.000002 0.000000 4.791244 1.406969 -32.511728 -0.009811 0.032262 -0.731461 -0.000001 -0.000001 -0.000007 0.000001 0.000002 0.000004 2.033739 2.547464 -11.730773 -49.108746 -27.605449 71.654005 -15.676626 70.363912 16.223586 24.448239 2.376633 3.415703 20.033718 -10.304437 2.771867 2.448564 -1.239513 -3.473779 0.000001 -0.000005 -0.000006 -0.000001 -0.000000 -0.000002 2.001068 0.350254 15.134717 -0.164564 -0.362444 26.108719 0.000001 -0.000001 -0.000001 0.000000 -0.000000 -0.000003 5.190145 -5.376717 41.936303 -3.747566 3.781757 78.674176 0.000001 0.000001 -0.000003 -0.000001 -0.000001 0.000002 -2.103130 -5.251482 37.233444 -1.763697 2.008601 64.508295 -0.000001 -0.000001 -0.000001 -0.000001 0.000000 -0.000001 -9.532650 -2.937392 35.759742 1.189429 1.985295 55.084151 -0.000001 -0.000000 0.000000 0.000000 0.000000 -0.000000 -7.625469 2.978133 -6.888407 45.808354 -2.269836 0.062960 2.777538 62.185293 -23.708217 -12.744256 -0.276923 -5.897172 0.000000 -0.000000 0.000002 -56.768933 -13.392122 -36.566367 48.700359 0.633109 1.462608 -3.443369 -35.296252 6.377626 -5.042469 0.032404 -0.022946 0.000000 0.000001 0.000000 
-56.918140 83.082825 13.990875 162.911924 60.707814 -154.329968 2.872877 1.780873 2.237130 5.766960 4.098884 2.485678 5.766958 4.098908 2.485676 5.313456 -0.635595 16.704373 10.027831 -36.121230 2.915847 -0.000002 0.000000 -0.000000 1.943033 2.811016 -0.055779 6.850794 -8.084022 -74.917968 0.954836 -22.380438 0.363380 32.009040 -8.515441 -15.869289 -16.449582 -15.637088 5.802343 12.343485 30.144234 -13.689109 0.000001 -0.000005 -0.000009 -0.000000 -0.000003 -0.000000 -8.232039 7.768428 -11.154712 0.513134 0.786355 -11.987264 0.000000 0.000000 -0.000007 -0.000000 0.000000 0.000001 -3.486046 -0.116495 -21.057564 -0.001936 0.207023 -0.958495 0.000001 -0.000001 -0.000010 0.000000 -0.000001 0.000002 -0.162638 2.465058 -27.306027 -0.446245 -0.822240 -21.190858 -0.000002 0.000000 -0.000004 0.000001 -0.000000 -0.000001 4.696743 1.381685 -34.396727 -0.003607 -0.116268 -1.536757 -0.000003 0.000003 -0.000007 -0.000001 -0.000000 0.000000 1.689808 0.323765 -13.370697 -58.849866 -30.906726 65.316949 -11.389135 65.598838 11.773086 20.937708 1.234933 0.984345 19.710616 -10.669544 2.776251 2.515847 -1.125597 -3.455255 0.000001 -0.000004 -0.000006 0.000002 0.000000 -0.000001 2.107706 0.375620 15.079509 -0.174233 -0.341587 26.292248 -0.000001 -0.000001 -0.000002 0.000000 -0.000000 -0.000002 5.229178 -5.408938 41.760221 -3.770538 3.786296 78.920814 0.000001 0.000000 -0.000000 0.000000 -0.000001 0.000001 -2.120924 -5.215547 37.016217 -1.780440 2.016499 64.962387 -0.000000 -0.000001 -0.000000 -0.000000 -0.000000 -0.000000 -9.557231 -2.867789 35.595678 1.268139 1.959168 55.502766 -0.000001 0.000000 0.000001 -0.000000 0.000001 0.000000 -3.452619 2.271916 -5.153175 37.450392 -4.050260 -0.998872 -12.595584 61.771657 -15.631356 -10.374160 0.175110 -3.848392 0.000000 -0.000000 0.000001 -54.575592 -14.597806 -39.348406 46.048090 0.979657 1.589997 0.443366 -40.151738 9.598115 -5.042469 0.032395 -0.022946 -0.000000 0.000001 0.000000 
-59.349365 83.680046 14.093237 168.000346 54.659921 -159.545255 2.776797 1.397561 1.600106 5.554884 3.235458 2.042928 5.554886 3.235467 2.042932 1.601164 -2.752262 16.826968 6.287531 -38.890066 2.821261 0.000002 0.000000 -0.000000 3.389847 3.590664 0.464000 3.498509 -6.646342 -73.930719 0.947248 -24.721322 0.395983 31.660908 -7.629334 -9.957220 -12.875690 -12.819161 7.689779 11.552701 28.314177 -12.396041 0.000001 -0.000006 -0.000007 -0.000000 -0.000000 -0.000000 -8.093796 8.166765 -11.672330 0.510565 0.788566 -11.832738 0.000002 -0.000001 -0.000008 0.000000 -0.000002 -0.000000 -3.411213 -0.131478 -20.410405 -0.001738 0.172457 -1.612996 -0.000000 -0.000000 -0.000012 0.000000 -0.000000 0.000000 0.096614 2.901997 -26.904819 -0.392155 -0.700705 -19.769609 -0.000004 0.000001 -0.000004 -0.000001 -0.000000 -0.000001 4.942766 1.879772 -34.373613 -0.012018 -0.308977 -2.581270 -0.000001 -0.000000 -0.000006 -0.000000 0.000000 -0.000000 1.132239 -2.561193 -14.824594 -69.991824 -31.857276 57.619845 -7.769731 57.906904 7.930231 18.038270 0.196604 -2.681434 19.386189 -11.033774 2.777263 2.583032 -1.011540 -3.436979 0.000002 -0.000004 -0.000005 0.000002 0.000001 0.000000 2.214344 0.400758 15.024256 -0.183922 -0.320747 26.475809 -0.000001 -0.000001 -0.000002 -0.000001 -0.000002 -0.000006 5.268026 -5.441397 41.584155 -3.793527 3.790743 79.167425 0.000001 -0.000001 -0.000001 -0.000000 -0.000001 -0.000001 -2.138439 -5.179435 36.799034 -1.797222 2.024276 65.416506 0.000000 -0.000001 -0.000000 0.000000 0.000000 -0.000000 -9.581407 -2.798026 35.431664 1.347315 1.934063 55.921310 -0.000000 -0.000000 0.000000 0.000000 -0.000000 -0.000000 -0.413986 -0.247277 -5.179898 27.634611 -4.443446 -1.870810 -32.023434 61.323002 3.092210 4.767176 0.437868 -4.711124 0.000000 0.000000 0.000000 -52.983799 -16.524895 -42.442031 44.197901 1.356317 1.745150 3.613628 -44.015733 12.169730 -5.042475 0.032417 -0.022946 -0.000000 0.000001 -0.000000 
